<?xml version="1.0" encoding="utf-8"?>
<!-- Generator: Adobe Illustrator 26.1.0, SVG Export Plug-In . SVG Version: 6.00 Build 0)  -->
<svg version="1.1" id="Layer_1" xmlns="http://www.w3.org/2000/svg" xmlns:xlink="http://www.w3.org/1999/xlink" x="0px" y="0px"
	 viewBox="0 0 97 97" style="enable-background:new 0 0 97 97;" xml:space="preserve">
<style type="text/css">
	.st0{fill:#FFFFFF;stroke:#000000;stroke-miterlimit:10;}
	.st1{stroke:#FFFFFF;stroke-miterlimit:10;}
</style>
<circle class="st0" cx="48.5" cy="48.5" r="48"/>
<path class="st1" d="M76,50.7c0,0-0.6-0.8-1.5-1.1s-5.6-1.1-5.6-1.1l-3.7-0.6c0,0-3.7-1-4.8-1.9c0,0-4.7-2.4-6.3-2.4
	c0,0-4.5-1.6-5.9-2.5c0,0-5.2-3.2-6.9-2.7c0,0-5.3-1.4-5.8-3.1c0,0-4.3-4.7-5.9-4.2c0,0-4.6-2.4-6.8-0.4c0,0-1.5,1.3-2.7,1.5
	c0,0-5.1-0.2-6,1.1l4.2,1.8c0,0,2.6,0.6,3.1,5.5c0,0-0.4,6.2-0.5,7c0,0.8,0.6,6.6,1.9,7.5c1.3,0.8,4.9,10.4,17.8,10.1
	c0,0,5.6,0.5,7.5,0s6.8-2,10.9-6.5c0,0,2.8-1,4.3-0.8s4.6-0.8,6.1-1.5c1.4-0.7,20.3,1.4,20.3,1.4s2.5,0.1,2.6-0.2
	c0.1-0.3-0.9-0.8-1.1-0.8c-0.2,0,0.8-0.5,0.8-0.5s0.3-0.4-0.2-0.5s0.2-0.7,0.2-0.7s0.8-0.8-0.2-1.1c-1-0.3-2.1-0.9-2.1-0.9L76,50.7z
	"/>
</svg>
