<?xml version="1.0" encoding="utf-8"?>
<!-- Generator: Adobe Illustrator 26.1.0, SVG Export Plug-In . SVG Version: 6.00 Build 0)  -->
<svg version="1.1" id="Layer_1" xmlns="http://www.w3.org/2000/svg" xmlns:xlink="http://www.w3.org/1999/xlink" x="0px" y="0px"
	 viewBox="0 0 97 97" style="enable-background:new 0 0 97 97;" xml:space="preserve">
<style type="text/css">
	.st0{fill:#FFFFFF;stroke:#000000;stroke-miterlimit:10;}
	.st1{fill:none;stroke:#000000;stroke-miterlimit:10;}
	.st2{stroke:#000000;stroke-miterlimit:10;}
</style>
<circle class="st0" cx="48.5" cy="48.5" r="48"/>
<path class="st0" d="M34,40l4.3,37.1c0,0,9.5,4.9,22.5,0.6l5-38.2c0,0,1.6-0.5,1.9-1.1S67,35.3,67,35.3s1.6,3.4-15.4,3.2
	s-20-2.6-20-2.6v2.6L34,40z"/>
<path class="st0" d="M64.5,31.3c0,0-12.6,3.9-29.7,0C34.8,31.3,49.8,25.1,64.5,31.3z"/>
<path class="st1" d="M31.6,36c0,0,3.2-0.3,3.2-4.7"/>
<path class="st1" d="M64.5,31.3c0,0-0.7,4,2.5,4.1"/>
<path class="st2" d="M35,48.5c0,0,10.5,3.5,29.5,0.8l-2.2,17c0,0-9.8,4.9-25.3,0L35,48.5z"/>
<path class="st0" d="M50,64.7c0,0,4.1-3.8,5.9-6.4c1.8-2.5-2-8.8-5.9-3.3c0,0-2.3-2.3-4-2c-1.8,0.3-2.9,1.9-2.6,3.3s1.4,2.5,2.1,3.3
	C46.3,60.6,50,64.7,50,64.7z"/>
<path class="st1" d="M44,11.3c-0.2,0.5-0.6,0.9-1,1.3c-0.3,0.4-0.6,1-0.5,1.5c0.1,0.2,0.2,0.4,0.3,0.6c0.3,0.5,0.7,1,1,1.5
	s0.7,1,0.8,1.6c0.2,1.1-0.5,2.2-1.4,2.8c-0.7,0.5-1.6,0.9-1.8,1.7c-0.2,0.7,0.4,1.5,0.9,2s1,0.9,1.2,1.5"/>
<path class="st1" d="M48.6,15.9c0.4,0.6,0.7,1.2,0.7,1.9c-0.1,1.3-1.7,2-1.8,3.3c-0.1,0.6,0.2,1.2,0.5,1.7c0.2,0.3,0.5,0.6,0.5,0.9
	c0.1,0.4,0,0.9-0.2,1.3c-0.2,0.4-0.3,0.9-0.7,1.1"/>
</svg>
