<?xml version="1.0" encoding="utf-8"?>
<!-- Generator: Adobe Illustrator 26.1.0, SVG Export Plug-In . SVG Version: 6.00 Build 0)  -->
<svg version="1.1" id="Layer_1" xmlns="http://www.w3.org/2000/svg" xmlns:xlink="http://www.w3.org/1999/xlink" x="0px" y="0px"
	 viewBox="0 0 97 97" style="enable-background:new 0 0 97 97;" xml:space="preserve">
<style type="text/css">
	.st0{fill:#FFFFFF;stroke:#000000;stroke-miterlimit:10;}
	.st1{fill:#00AEEF;stroke:#000000;stroke-width:0.5;stroke-miterlimit:10;}
	.st2{fill:none;stroke:#000000;stroke-width:0.5;stroke-miterlimit:10;}
</style>
<circle class="st0" cx="48.5" cy="48.5" r="48"/>
<path class="st1" d="M41.9,29.9c0,0-0.6-1-7.1,0.1c-4.8,0.8-4.4,3.9-3.8,5.4c0.1,0.4-0.2,0.8-0.6,0.8c-0.8-0.1-1.9-0.2-2.7-0.2
	c-2.2,0-3,2.3-2.5,4.1c0.3,1.3-4.4-2-6.2,1.4s-0.5,7.1,2.5,7.2c3,0.2,4.3-1.1,4.8-1.1s0.3,3.8,3.3,2.9c2.9-0.8,1.4,2.5,6.6-0.6
	c0.1,0,0.2,0,0.2,0.1c0.1,0.6,0.7,2.7,2.2,2.6c1.8-0.1,3,1.7,6.4-0.8c0.3-0.2,0.7-0.1,0.9,0.2c0.4,0.8,1.2,2,2.9,2.1
	c1.8,0.1,3.5-0.8,4.4-1.3c0.3-0.2,0.6-0.1,0.8,0.2c0.3,0.5,1.1,1.1,2.9,1.1c2,0,2.4-1.6,2.4-2.5c0-0.4,0.3-0.6,0.7-0.6
	c0.6,0.1,1.5,0.2,1.9-0.2c0.8-0.6,1.5-0.6,1.5-2.9c0-0.2,0.1-0.4,0.3-0.5c0.3-0.1,0.8-0.4,1.1-1c0.3-0.5,0.9-0.7,1.4-0.4
	c1.6,1.1,4.9,2.4,8.7,1.9c5-0.6,6.1-5.7,6.1-6.3l0,0c0-0.4-0.1-5.5-1.5-7.2c-1.3-1.5-1.5-3-8-0.8c0,0-0.1,0-0.1,0.1l-2.9,1.8
	c-0.1,0,0.1-7.6-3.4-7.4c-2,0.1-3.7,1.6-4.8,2.8c-0.4,0.4-1,0.1-1-0.4c0.1-2.8-0.6-7.5-6.7-6.5c-6.2,1-7.9,5.9-8.3,8.7
	C43.9,34.2,43.2,30.3,41.9,29.9z"/>
<path class="st1" d="M36.3,50.2c0,0,0.1-3.1,1.6-4.8c1.4-1.6,1.7-1.7,4.9,0.5c0.2,0.2,0.5,0,0.5-0.3c-0.2-1.2-0.3-3.4,1.6-3.6
	c2.1-0.2,2.3-0.1,3.2,1.1c0.2,0.3,0.7,0.2,0.8-0.2c0.2-1.6,1.2-4.2,4.9-3.9c5.2,0.4,4.3,5.6,4.3,5.6s4.9,0.3,5.3,3.5"/>
<path class="st1" d="M26.5,57.1c0,0-2.8,3.5-2.7,4.7s0.4,1.4,0.8,1.6s1.6-0.3,2-1.4C26.9,60.9,26.5,57.1,26.5,57.1z"/>
<path class="st1" d="M39.8,55.4c0,0-2.4,3.5-2.6,4.2s-0.1,2.4,0.6,2.3s1.9-0.9,1.9-1.8S39.8,55.4,39.8,55.4z"/>
<path class="st1" d="M34,65c0,0-1.8,2.4-1.8,2.9s-0.8,0.8,0.4,1.5c1.2,0.8,1.4-0.9,1.4-0.9V65z"/>
<path class="st1" d="M49.2,57.8c0,0,0.9,6-0.9,6.4s-1.8-0.5-1.8-0.5s-0.5-0.7,0-2.1C46.9,60.2,49.2,57.8,49.2,57.8z"/>
<path class="st1" d="M58.2,57.8c0,0,0.5,3.8-0.3,4s-1,0.7-1.5-0.1C56,60.9,58.2,57.8,58.2,57.8z"/>
<path class="st1" d="M46.3,68.7c0,0,0.7,4.3-0.7,4.4c-1.4,0.1-1.3-1.6-1.3-1.6L46.3,68.7z"/>
<path class="st1" d="M58,65.7c0,0,1.3,5.9-1,6.4c-2.3,0.4-1.6-1.4-1.6-1.5S58,65.7,58,65.7z"/>
<path class="st1" d="M70.3,64.3c0,0,0.5,5.6-0.9,6s-1.1,0.4-1.8-0.3C66.7,69.4,70.3,64.3,70.3,64.3z"/>
<path class="st1" d="M67.8,51.2c0,0,0.8,6.9-1.5,6.6C64,57.5,67.8,51.2,67.8,51.2z"/>
<path class="st1" d="M49.6,74.8c0,0,1,6.2-1.5,6.4C45.7,81.4,49.6,74.8,49.6,74.8z"/>
<line class="st2" x1="33.5" y1="54.3" x2="32.6" y2="56.8"/>
<line class="st2" x1="32.2" y1="57.8" x2="31.2" y2="60.3"/>
<line class="st2" x1="42" y1="64.5" x2="41" y2="67"/>
<line class="st2" x1="40.8" y1="68.2" x2="39.8" y2="70.6"/>
<line class="st2" x1="39.5" y1="71.4" x2="38.5" y2="73.8"/>
<line class="st2" x1="52.6" y1="65" x2="51.6" y2="67.4"/>
<line class="st2" x1="64.6" y1="59.9" x2="63.6" y2="62.3"/>
<line class="st2" x1="63.4" y1="63.8" x2="62.4" y2="66.2"/>
</svg>
