<?xml version="1.0" encoding="utf-8"?>
<!-- Generator: Adobe Illustrator 26.1.0, SVG Export Plug-In . SVG Version: 6.00 Build 0)  -->
<svg version="1.1" id="Layer_1" xmlns="http://www.w3.org/2000/svg" xmlns:xlink="http://www.w3.org/1999/xlink" x="0px" y="0px"
	 viewBox="0 0 97 97" style="enable-background:new 0 0 97 97;" xml:space="preserve">
<style type="text/css">
	.st0{fill:#FFFFFF;stroke:#000000;stroke-miterlimit:10;}
	.st1{fill:#27AAE1;}
	.st2{fill:none;stroke:#27AAE1;stroke-miterlimit:10;}
</style>
<circle class="st0" cx="48.5" cy="48.5" r="48"/>
<path class="st1" d="M45.6,23c0,0-9.9,15.6-10.4,22c0,0-1.6,8.3,9.3,10.1c11.5,2,12.3-10.3,12-11.6c0-0.1,0-0.1,0-0.2
	C56.5,41.9,55,32.7,45.6,23z"/>
<path class="st2" d="M30.1,55.3c0,0-13.6-0.1-14.7,6.5c-1,5.9,29.6,7.8,36.4,8.1c0.9,0,1.8,0,2.7-0.1c4.9-0.5,21.2-2.7,24.2-6.9
	c3.5-5-17.4-7.6-17.4-7.6"/>
<path class="st2" d="M37.2,57.1c0,0-6.9-0.1-7.4,3.3c-0.5,3,15,3.9,18.4,4.1c0.5,0,0.9,0,1.4,0c2.5-0.3,10.8-1.3,12.3-3.5
	c1.8-2.5-8.8-3.9-8.8-3.9"/>
<path class="st2" d="M43.2,58.7c0,0-2.1,0-2.3,1c-0.2,0.9,4.6,1.2,5.7,1.3c0.1,0,0.3,0,0.4,0c0.8-0.1,3.3-0.4,3.8-1.1
	c0.5-0.8-2.7-1.2-2.7-1.2"/>
</svg>
