<?xml version="1.0" encoding="utf-8"?>
<!-- Generator: Adobe Illustrator 26.1.0, SVG Export Plug-In . SVG Version: 6.00 Build 0)  -->
<svg version="1.1" id="Layer_1" xmlns="http://www.w3.org/2000/svg" xmlns:xlink="http://www.w3.org/1999/xlink" x="0px" y="0px"
	 viewBox="0 0 97 97" style="enable-background:new 0 0 97 97;" xml:space="preserve">
<style type="text/css">
	.st0{fill:#FFFFFF;stroke:#000000;stroke-miterlimit:10;}
	.st1{fill:#52BEED;stroke:#20647B;stroke-width:0.25;stroke-miterlimit:10;}
	.st2{fill:none;stroke:#20647B;stroke-width:0.25;stroke-miterlimit:10;}
	.st3{fill:#C8E9EB;}
	.st4{fill:none;}
	.st5{fill:#00AEEF;}
</style>
<circle class="st0" cx="48.5" cy="48.5" r="48"/>
<path class="st1" d="M27,35.2c0,0-4.8-2.3-7,0c0,0,5-0.5,4.5,1.2c-0.4,1.7-0.1,3.6-2.2,2.9c-2.2-0.7-7.3-5.7-8.4-6.7
	C13.2,32,10,30,8.5,31.8c-1,1.2-2,2.4-3,2.9c-2.7,1.4,4-0.9,3.8,0.8s0.1,4.9-3.2,4.4c-3.2-0.5-4.4-0.8-4.4-0.8L0.5,50.4l0.8,7
	c0,0,4.2,2.7,10.3,3.7s68.7,7.3,70.1,12.3c0,0,10.6-2.5,10.8-5.8c0.1-1.7,2.8-8.9,3.5-15.8s-0.6-13.5-0.6-13.5l-5.1,0.8
	c0,0-5.4-12.8-11.8-6.4c0,0,5.7,0.2,4.6,1.6c-1.2,1.5,0.5,4.1-4.9,3.2c-5.4-1-12.7-7.9-16-4.2c0,0,2.2-0.4,2.3,0.7
	c0.1,1.1,2.8,5.2-0.2,5.7s-3.2-0.9-5-4.2s-9.6-11.2-17-10.8c-2.5,0.1-6.2,1.3-8.7,3C29.3,30.5,27,35.2,27,35.2z"/>
<path class="st2" d="M6.9,47.2c0.6-0.1,1.2-0.2,1.8-0.4c0.6-0.2,1.1-0.6,1.3-1.1s0.3-1,0.3-1.5c0.1-1,0.1-2,0.2-3.1"/>
<path class="st2" d="M13.6,41.1c0.2,0.7,0,1.5-0.4,2.1"/>
<path class="st2" d="M10,49.9c-0.2,0.3-0.6,0.5-1,0.6s-0.8,0-1.2,0.1"/>
<path class="st2" d="M4,57.4c1.5-1.4,3.7-1.8,5.8-1.7c2.1,0,4.2,0.4,6.2-0.1c0.5-0.1,1-0.3,1.3-0.6c0.9-0.8,0.6-2.3,0-3.3
	s-1.5-1.9-1.9-3.1c1.2,0.4,2.4,0.8,3.7,0.8s2.6-0.3,3.5-1.2c0.2-0.2,0.4-0.4,0.6-0.5c0.5-0.2,1-0.1,1.5,0.2c0.4,0.3,0.8,0.7,1.2,1
	c1.4,1.3,3.4,1.9,5.2,1.8c0.7-0.1,1.5-0.3,2-0.8s0.6-1.3,0.7-2c0.2-1.5,0.4-3.2-0.2-4.6c-0.8-1.9-2.7-2.9-4.5-3.8
	c1.8,0.4,3.8,0.9,5.1,2.3c0.6,0.7,1,1.5,1.3,2.4c1.1,3.6,0,7.8-2.9,10.3c-2.1,1.9-5,2.7-7.7,3.3s-5.6,1-8.2,2.2
	c-0.3,0.1-0.6,0.4-0.4,0.6"/>
<path class="st2" d="M93.6,44.8c-1.6-0.4-3.5-0.1-4.9-1c-0.5-0.3-0.9-0.8-1.3-1.2c-0.7-0.8-1.4-1.6-2.1-2.5"/>
<path class="st2" d="M82.7,43.3c0.3,1.5,1.8,2.6,3.3,2.5"/>
<path class="st2" d="M96,52.4c-1.4,0.8-2.9,1.6-4.6,1.8S88,54.1,86.8,53c-2.2-2-2.3-5.9-5-7.1c-1.3-0.6-2.8-0.3-4.1-0.1
	c-1.3,0.2-2.8,0.8-2.9,2.1c0.9,0,1.9,0,2.8,0.3c0.9,0.4,1.6,1.2,1.6,2.1s-0.8,1.7-1.5,2.2c-3.6,2.3-8.4,1.4-12-0.8"/>
<path class="st2" d="M6.7,53.2c0.9-2.2,2-4.6,4.3-5.3c1-0.3,2-0.2,3-0.1c2.7,0.3,5.4,0.6,8.1,0.8c3.1,0.3,6.5,0.6,9.1-1.1
	c2.4-1.6,3.7-4.5,4.2-7.3c0.4-2,0.5-4.3-0.7-5.9c-1.1-1.6-3.1-2.3-5-1.8c-1.8,0.5-3.2,2.2-3.4,4.1"/>
<path class="st2" d="M12.8,61.3c0.4-1.9,4.3-0.2,6.2-0.4c4.1-0.4,8.2-0.8,12.3-0.6c2.2,0.1,4.4,0.4,6.6,0.3s4.5-0.7,6.2-2.1
	c0.8-0.7,1.4-1.5,2-2.4c1.7-2.3-3.1-6.8,3.9-7.5c4.3-0.4-1.9-8.5-5.3-11.3c-0.9-0.8-2-1.5-3.2-1.8c-1.2-0.2-2.6,0.2-3.3,1.2
	c2.6-3.2,7.3-3.5,11.5-3.2c1.8,0.1,4.5,1,5.9,2c1,0.7,1.3,1.2,1.6,2.3c1,4,4.8,9.2,8.4,7.8c6.1-2.4,1.9,5.2,3,7.8
	c1.2,2.7,3.2,4.9,5.3,7.1c4.3,4.5,9.3,8.8,15.5,9.7"/>
<path class="st2" d="M69.7,67.4c-3-1-5-3.7-6.5-6.5c-1.4-2.8-2.4-5.8-3.9-8.5c1.1,1.8,2.2,3.9,1.7,6c-0.2,1-0.8,1.9-1.4,2.8
	c-1.7,2.6-4.3,4.8-7.4,5.2"/>
<path class="st2" d="M79.6,70.3c-1.3-1.1-2.5-2.2-3.8-3.3c-1.4-1.2-2.9-2.5-4.1-3.9c-1.7-1.9-2.9-4.1-4.2-6.3
	c-0.8-1.4-1.6-2.8-2.4-4.2c-1.7-3-3.5-6-5.9-8.4s-5.8-4.2-9.2-4c2.9,1,4.4,4.1,5.3,7c0.4,1.3,0.8,2.7,0.7,4.1c0,1.5-0.5,2.9-1.1,4.2
	c-1.8,4.2-4.9,7.3-8.7,9.9"/>
<path class="st3" d="M95,48.2v5c0,0-3,2.9-6.2,2.7c-3.3-0.1-5.5-3.3-5.8-4.9s-2-5.7-4.6-4.8s-4.9,2-4.9,2s4.6-0.1,3.6,2.3
	c-0.5,1.3-0.5,2.9-2.8,3.3s-10-0.9-10-0.9l6.1,10.9c0,0,4.4,1.3,6.2,0.9c1.9-0.4,2.9-3.1,1.4-3.3c-1.5-0.1-3.8-0.1-3.8-0.1
	s3.4-2.2,4.6-1.6s2.6,2.1,3.2,5c0.6,3,5.7,1.6,5.7,1.6l6-2.6L95,53.6"/>
<path class="st3" d="M21.4,47.4l1.2-8.1c0,0-1.9,3.4-4.1,3.7c-5.1,0.8-2.2-5.1-2.4-6.4c-0.2-1.2-4.5-5.8-6.2-5.2
	c-1.7,0.7-1,2.6-1,2.6s0.4,2.5,0.2,3.5s-0.7,2.4-2.3,2.7c-1.5,0.3-4.9-1.4-4.9-1.4L3.4,49c0,0,5.7-0.6,7-0.9
	c1.2-0.3,1.9-2.4,0.9-2.5s-2.5-0.1-2.5-0.1s2.3-1.6,3.1-1.2s1.2,3.4,1.6,5.7c0.2,1.1,1.6,3.3,2.5,3.3s3.2-7.7,4-8.2L21.4,47.4
	l1.2-7.5"/>
<path class="st4" d="M11.3,14.4c0.2-0.3,0.3-0.6,0.3-0.9c-0.1-0.4-0.4-0.6-0.8-0.8c-0.8-0.3-1.6-0.5-2.4-0.4
	c-0.2-0.4,0.4-0.7,0.8-0.7c1.5-0.1,3-0.1,4.5-0.2c0.3,1.1,0.6,2.2,0.6,3.4c1.7-1.7,4.9-1.3,6.2,0.7c0.6,1,0.8,2.2,1,3.3
	c0.3,1.8,0.5,3.8-0.3,5.5c-2.5,1-5.2-0.3-7.4-1.8c-1-0.7-2-1.4-3.1-2.1c-1-0.6-2.4-0.8-3.3-1.4c0.3-0.8,1.4-1.3,1.9-2
	C10.2,16.2,10.7,15.3,11.3,14.4z"/>
<path class="st5" d="M31,59.9c3.6-2.3,6.3-6.1,7-10.3s-0.8-8.8-4.1-11.6c4.8,0.5,9,4,11,8.4c2.1,4.4,2.2,9.5,1.4,14.2"/>
<path class="st3" d="M2.7,46.9"/>
<path class="st5" d="M86.2,71"/>
</svg>
