<?xml version="1.0" encoding="utf-8"?>
<!-- Generator: Adobe Illustrator 26.1.0, SVG Export Plug-In . SVG Version: 6.00 Build 0)  -->
<svg version="1.1" id="Layer_1" xmlns="http://www.w3.org/2000/svg" xmlns:xlink="http://www.w3.org/1999/xlink" x="0px" y="0px"
	 viewBox="0 0 97 97" style="enable-background:new 0 0 97 97;" xml:space="preserve">
<style type="text/css">
	.st0{fill:#FFFFFF;stroke:#000000;stroke-miterlimit:10;}
	.st1{fill:url(#SVGID_1_);stroke:#000000;stroke-miterlimit:10;}
	.st2{fill:none;stroke:#000000;stroke-miterlimit:10;}
</style>
<circle class="st0" cx="48.5" cy="48.5" r="48"/>
<linearGradient id="SVGID_1_" gradientUnits="userSpaceOnUse" x1="26.1975" y1="382.7269" x2="80" y2="382.7269" gradientTransform="matrix(1 0 0 1 0 -333.1102)">
	<stop  offset="0" style="stop-color:#FFFFFF"/>
	<stop  offset="1" style="stop-color:#000000"/>
</linearGradient>
<path class="st1" d="M80,63.2V35.9c0,0-0.2-4-2.3-4.7s-48.5,0-48.5,0s-3.1,1.3-3,3.5s0,28.5,0,28.5s-0.2,2.4,3,4.3
	c3.3,1.9,46.9,0,46.9,0S79.3,66.5,80,63.2z"/>
<path class="st0" d="M65.9,58.4V40.7c0,0-0.2-2.6-1.5-3c-1.4-0.5-31.3,0-31.3,0s-2,0.8-2,2.3c0.1,1.4,0,18.4,0,18.4s-0.1,1.6,2,2.8
	s30.3,0,30.3,0S65.4,60.5,65.9,58.4z"/>
<polyline class="st2" points="44.2,22.3 53.1,30.3 67.3,16.5 "/>
<circle class="st0" cx="72.9" cy="44.3" r="2.9"/>
<circle class="st0" cx="72.9" cy="54.3" r="2.9"/>
</svg>
