<?xml version="1.0" encoding="utf-8"?>
<!-- Generator: Adobe Illustrator 26.1.0, SVG Export Plug-In . SVG Version: 6.00 Build 0)  -->
<svg version="1.1" id="Layer_1" xmlns="http://www.w3.org/2000/svg" xmlns:xlink="http://www.w3.org/1999/xlink" x="0px" y="0px"
	 viewBox="0 0 97 97" style="enable-background:new 0 0 97 97;" xml:space="preserve">
<style type="text/css">
	.st0{fill:#FFFFFF;stroke:#000000;stroke-miterlimit:10;}
	.st1{fill:#CEE4F5;}
	.st2{fill:#AAC089;}
	.st3{opacity:0.24;fill:none;stroke:#000000;stroke-width:1.000000e-02;stroke-miterlimit:10;enable-background:new    ;}
	.st4{opacity:0.2;fill:none;stroke:#000000;stroke-width:1.000000e-02;stroke-miterlimit:10;enable-background:new    ;}
	.st5{fill:none;stroke:#754C29;stroke-width:1.000000e-02;stroke-miterlimit:10;}
	.st6{opacity:0.2;fill:none;stroke:#000000;stroke-width:3.000000e-02;stroke-miterlimit:10;enable-background:new    ;}
	.st7{fill:none;stroke:#000000;stroke-width:3.000000e-02;stroke-miterlimit:10;}
	.st8{fill:none;stroke:#000000;stroke-width:1.000000e-02;stroke-miterlimit:10;}
</style>
<circle class="st0" cx="48.5" cy="48.5" r="48"/>
<path class="st1" d="M50.5,39.8c0,0-7.8,0.9-10.1,3.7S27.9,53,27.9,53s-3.8,2-8.8,1.3s-4.9-7.1-4.9-7.1s1.2-6.5,5.1-6.7
	c3.8-0.3,4.2-0.2,4.2-0.2s-1.8-3.3-7.6-0.4c-5.8,3-4.4,10.5-4.4,10.5s1.3,5.4,6.8,7c5.4,1.6,14.9-3.4,18.1-7
	C39.5,46.8,50.5,39.8,50.5,39.8z"/>
<path class="st1" d="M46.5,35.8l-9.8,4.8c0,0,2-2.7,3.6-3.6C41.9,36.1,46.5,35.8,46.5,35.8z"/>
<path class="st2" d="M42.8,60.5c-0.3,0.1-0.5,0.5-0.6,0.8c-0.4,0.9-0.7,1.7-1.1,2.6c-0.2,0.4-0.4,0.9-0.6,1.3
	c-0.6,0.8-1.4,1.3-2.3,1.8c1.6,0.1,3.3-0.2,4.6-1.3c0.9-0.7,1.4-1.8,1.5-2.9C44.3,62.1,44,60.1,42.8,60.5z"/>
<path class="st1" d="M84.4,39.9c-0.2,0.5-0.4,1-0.7,1.5c-0.4,0.5-0.8,1-1.3,1.4c-2.2,2-4.4,4.1-7.1,5.2c-4.9,2-10.6,0.8-15.5,2.9
	c-1.7,0.7-3.2,1.8-4.6,3c-3,2.5-5.6,5.7-6.6,9.5c0.7-1.6,1.8-3,3-4.2c1-0.9,2-1.8,3.2-2.5s2.5-1.2,3.8-1.7c2.9-1.1,5.8-2.3,8.9-2.8
	c2.3-0.4,4.6-0.3,6.8-0.7c2.3-0.4,4.5-1.2,6.1-2.8c0.9-1,1.6-2.3,2.5-3.3c0.7-0.8,1.7-1.6,2.1-2.6c0.7-1.6,0.1-3.5,0.4-5.2
	C85,38.3,84.7,39.1,84.4,39.9z"/>
<path class="st2" d="M81,52.1c-0.2,0.2-0.4,0.5-0.6,0.8c-1,1.2-2.6,1.8-4.1,1.9c0.8,0.2,1.5,0.7,2.3,1c0.9,0.3,1.9,0.1,2.7-0.5
	c0.7-0.5,1.5-1.6,1.6-2.5C83,51.7,81.7,51.5,81,52.1z"/>
<path class="st2" d="M62.3,36.8c-1,1.2-2.5,2-4.1,2.2c-0.3,0-0.6,0-0.9-0.1s-0.5-0.3-0.6-0.6c-0.4-0.4-0.7-0.8-1.1-1.3
	c-0.1-0.1-0.2-0.2-0.2-0.3c-0.1-0.3,0.1-0.6,0.3-0.8c0.2-0.2,0.5-0.3,0.8-0.3c1.5-0.4,3-0.7,4.6-1.1c0.6-0.2,1.2-0.3,1.8-0.6
	c0.6-0.3,0.9-0.7,1.2-1.3C64,34,63.2,35.7,62.3,36.8z"/>
<path class="st1" d="M59.1,48.5c-2.4,0.9-4.6,2.3-6.4,4c0.1-0.6,0.5-1.1,0.8-1.5c1.5-1.8,3.3-3.4,5.5-4.2c1.6-0.6,3.4-0.6,5.1-1.1
	c0.8-0.2,1.5-0.5,2.3-0.6s1.5-0.1,2.3-0.1c0.6,0,3.4-0.3,3.7,0.2c-1.9,1.1-4.5,1.4-6.6,1.8c-1.1,0.2-2.2,0.4-3.4,0.6
	c-0.6,0.1-1.1,0.3-1.7,0.4C60.2,48.2,59.6,48.5,59.1,48.5z"/>
<path class="st2" d="M27.3,45.5c-0.4-0.2-0.9,0-1.3,0.3s-0.6,0.7-0.8,1.1c-0.9,1.2-2.5,1.8-3.9,1.6c0.8,0.6,1.6,1,2.4,1.4
	c0.8,0.3,1.6,0.6,2.4,0.5c0.8,0,1.7-0.4,2.1-1.1c0.5-0.7,0.2-1.3-0.1-2.1C27.9,46.6,28,45.8,27.3,45.5z"/>
<path class="st1" d="M64.9,39.7c-4.9,1-9.6,2.9-13.7,5.6c-2.8,1.8-5.3,4-7.8,6.2c-1.1,0.9-2.1,1.8-3,2.9c-1.2,1.4-2,3.1-3.2,4.5
	c-0.5,0.5-1,1-1.5,1.4c-2.1,1.9-4.3,3.8-6.8,5.1C27,66.4,25,67,23,67.5c2.2,0.5,4.6,1,6.7,0.4c1.1-0.3,2.1-0.9,3-1.5
	c3.5-2.5,6-6.2,9.1-9.1c3-2.8,6.7-5,9.9-7.5c2.8-2.2,5.4-4.8,8.3-6.8c1.4-1,2.9-1.8,4.4-2.5c0.8-0.3,1.6-0.6,2.4-0.8
	c0.6-0.1,1.4-0.1,1.9-0.5C67.5,39.2,66.1,39.5,64.9,39.7z"/>
<path class="st1" d="M31.9,57.6c-2.1,1.2-4.2,2.5-6.5,3.2c-1.2,0.3-2.3,0.5-3.5,0.7c-1.5,0.2-3.1,0.3-4.6-0.2
	c-1.4-0.5-2.5-1.7-3.6-2.8c2.8,0.6,5.6,1.3,8.4,1.4s5.8-0.3,8.3-1.6"/>
<path class="st3" d="M28,47.3c-0.4,0.3-0.8,0.4-1.2,0.7c-0.1,0-0.1,0.1-0.2,0.1c0,0.1,0,0.1-0.1,0.1c-0.1-0.1-0.3-0.2-0.4-0.3
	c-0.1-0.1-0.2-0.1-0.2-0.2s-0.1-0.2-0.1-0.3c-0.1-0.4-0.2-0.8-0.2-1.2"/>
<path class="st4" d="M25,47.1c0,0.2,0,0.4,0,0.6c0.1,0.2,0.2,0.4,0.3,0.5c0.1,0.1,0.3,0.2,0.5,0.4"/>
<path class="st4" d="M24.2,47.8c0,0.2,0,0.4,0.1,0.6s0.3,0.3,0.5,0.4"/>
<path class="st4" d="M23.4,48.2c0,0.3,0.2,0.6,0.5,0.8"/>
<path class="st4" d="M22.5,48.5L22.5,48.5c0.1,0.2,0.2,0.4,0.3,0.5c0.1,0.1,0.2,0.2,0.4,0.3"/>
<path class="st4" d="M26.6,50.4c-0.2,0-0.4-0.2-0.5-0.3s-0.2-0.4-0.3-0.5c0-0.2-0.1-0.3-0.1-0.5c0-0.1-0.1-0.4,0-0.4l0.2-0.1
	c0.1,0,0.1-0.1,0.2-0.1c0.1-0.1,0.3-0.2,0.4-0.2c0,0.4,0.1,0.9,0.3,1.2c0.1,0.1,0.2,0.3,0.3,0.4c0.1,0.1,0.3,0.2,0.4,0.2"/>
<path class="st4" d="M24.8,48.8c0,0.2,0,0.3,0,0.5c0,0.1,0.1,0.2,0.1,0.3c0.2,0.3,0.4,0.6,0.6,0.8"/>
<path class="st4" d="M23.9,49c0,0.2,0,0.4,0.1,0.6s0.1,0.4,0.3,0.5c0,0,0,0,0.1,0.1c0,0,0,0,0-0.1"/>
<path class="st4" d="M23.2,49.2c0,0.1,0,0.2,0,0.3l0.1,0.1c0.2,0.1,0.3,0.2,0.5,0.3"/>
<path class="st4" d="M25.8,48.6c-0.3,0-0.6,0.2-0.9,0.2c-0.3,0.1-0.7,0.1-1,0.2c-0.1,0-0.2,0-0.2,0.1c-0.1,0-0.2,0.1-0.3,0.1
	c-0.2,0.1-0.5,0.1-0.8,0.1c-0.1,0-0.1,0-0.2-0.1c-0.1,0-0.1-0.1-0.1-0.1c-0.1-0.1-0.3-0.2-0.4-0.4c-0.1-0.1-0.1-0.1-0.2-0.2
	c-0.1,0-0.2,0-0.3-0.1"/>
<path class="st5" d="M28,47.3c0.1-0.2,0.3-0.4,0.4-0.5s0.2-0.2,0.3-0.4c0-0.1,0-0.2,0-0.3"/>
<path class="st6" d="M44.7,57.6c-1,0.6-1.6,1.7-1.5,2.9c0,0.6-0.3,1.2-0.5,1.7c-0.1,0.3-0.3,0.6-0.5,0.9c-0.5,0.8-0.8,1.8-1.4,2.5
	c-0.6,0.8-1.6,1.3-2.6,1.4"/>
<path class="st6" d="M43.1,61.2c0,0.2,0.1,0.5,0.2,0.7s0.3,0.4,0.4,0.5c0.2,0.2,0.3,0.4,0.5,0.6"/>
<path class="st6" d="M42.6,62.4c0,0.4,0.2,0.8,0.4,1.2c0.2,0.4,0.5,0.7,0.8,1"/>
<path class="st6" d="M41.9,63.6c0.3,0.5,0.4,1.2,0.6,1.7c0,0.1,0.1,0.3,0.3,0.3"/>
<path class="st6" d="M41.4,64.7c0,0.4,0,0.8,0,1.2c0,0.1,0,0.2,0,0.3s0.1,0.2,0.2,0.2"/>
<path class="st6" d="M40.7,65.6c0,0.4,0,0.8-0.2,1.2"/>
<path class="st6" d="M40.1,66.3c0,0.2,0,0.4-0.1,0.5l-0.1,0.1"/>
<path class="st6" d="M42.9,61.7c-0.2,0.2-0.3,0.3-0.5,0.5c-0.1,0.1-0.1,0.1-0.2,0.2s-0.1,0.2-0.1,0.2c-0.2,0.3-0.4,0.5-0.7,0.6"/>
<path class="st6" d="M42.1,63.3c-0.2,0-0.3,0.1-0.4,0.2s-0.2,0.2-0.3,0.4c-0.1,0.1-0.1,0.2-0.2,0.3l-0.1,0.1c0,0-0.1,0.1-0.1,0"/>
<path class="st6" d="M41.5,64.6c-0.1,0-0.2,0.1-0.2,0.1c-0.2,0.3-0.3,0.6-0.6,0.8c-0.2,0.1-0.4,0.2-0.5,0.2"/>
<path class="st6" d="M40.2,66.2c-0.1,0-0.3,0-0.4,0s-0.2,0.1-0.2,0.2c-0.1,0.1-0.2,0.1-0.3,0"/>
<path class="st6" d="M64.1,32.7c-0.1,0.8-0.7,1.5-1.1,2.1c-1,1.4-2.4,2.3-4.1,2.7c-0.8,0.2-1.6,0.4-2.5,0.4"/>
<path class="st6" d="M56.6,35.6c0,0.5,0,1.1,0,1.6c0,0.1,0,0.3,0,0.4c0,0.1,0.1,0.3,0.3,0.3"/>
<path class="st6" d="M57.7,35.4c0,0.8,0.2,1.7,0.4,2.5c-0.1,0.1-0.1,0.3,0,0.4c0.1,0.1,0.3,0,0.3-0.2s-0.2-0.3-0.3-0.2"/>
<path class="st6" d="M59.2,35c0,0.5,0.1,0.9,0.2,1.4c0,0.2,0.1,0.4,0.1,0.5c0.1,0.2,0.2,0.3,0.3,0.4"/>
<path class="st6" d="M60.5,34.7c0,0.4,0,0.8,0.1,1.1c0,0.1,0.1,0.2,0.2,0.3c0.1,0.2,0.2,0.3,0.2,0.5"/>
<path class="st6" d="M61.6,34.4c0.1,0.5,0.3,1,0.5,1.5"/>
<path class="st6" d="M63,33.9c-0.1,0.4,0,0.9-0.2,1.3"/>
<path class="st6" d="M58.9,37.6c0.2,0.5,0.7,0.8,1.2,0.9"/>
<path class="st6" d="M60.4,37.1c0.1,0.1,0.2,0.2,0.3,0.3c0.1,0.1,0.2,0.1,0.3,0.1c0.1,0,0.1,0,0.2,0s0.2,0,0.4,0"/>
<path class="st6" d="M61.6,36.3c0.1,0.1,0.3,0.1,0.4,0.2s0.3,0.1,0.4,0.1"/>
<path class="st6" d="M62.5,35.5c0.2,0.1,0.5,0.1,0.7,0.1"/>
<path class="st6" d="M57.5,37.9c0.1,0.2,0.3,0.4,0.5,0.5s0.4,0.2,0.7,0.2c0.2,0,0.4,0.1,0.6,0.1"/>
<path class="st7" d="M56.5,38c-0.7,0.5-1.5,0.8-2.4,0.7"/>
<path class="st4" d="M82.5,51.9c-0.5,1.2-1.4,2.1-2.4,2.8c-0.2,0.1-0.5,0.3-0.7,0.3c-0.3,0.1-0.6,0.1-0.9,0.1c-0.2,0-0.5,0-0.7,0
	c-0.5-0.1-0.9-0.3-1.4-0.3"/>
<path class="st4" d="M82.2,52.5c-0.3,0.1-0.6,0.2-0.9,0.3c-0.3,0.1-0.6,0.1-0.9,0"/>
<path class="st4" d="M81.4,53.6c-0.3,0-0.5,0.1-0.8,0.1s-0.6,0-0.8-0.2"/>
<path class="st4" d="M80.3,54.5c-0.5,0.1-1-0.1-1.3-0.5"/>
<path class="st4" d="M78.2,54.3c0.1,0.2,0.3,0.4,0.5,0.5c0.1,0,0.2,0.1,0.3,0.1c0.2,0,0.4,0.1,0.6,0.1"/>
<path class="st4" d="M77.3,54.6c0.2,0.2,0.4,0.3,0.6,0.4H78c0.1,0,0.1,0.1,0.2,0.1"/>
<path class="st4" d="M78.7,55.1c0,0.1,0,0.1-0.1,0.2s-0.1,0.1-0.2,0.1c-0.1,0-0.1,0-0.2,0c-0.1,0-0.1,0-0.2,0"/>
<path class="st4" d="M79.8,54.8c0,0.1,0,0.2-0.1,0.3s-0.1,0.2-0.2,0.3c-0.1,0.1-0.2,0.2-0.3,0.3"/>
<path class="st4" d="M80.8,54.2c0,0.5-0.1,1-0.3,1.5"/>
<path class="st4" d="M81.8,53c0,0.4,0,0.8-0.1,1.3c0,0.2-0.1,0.4-0.1,0.6"/>
<path class="st8" d="M82.5,51.9c0,0,0-0.1,0.1-0.1c0.1-0.2,0.3-0.3,0.5-0.4"/>
</svg>
