<?xml version="1.0" encoding="utf-8"?>
<!-- Generator: Adobe Illustrator 26.1.0, SVG Export Plug-In . SVG Version: 6.00 Build 0)  -->
<svg version="1.1" id="Layer_1" xmlns="http://www.w3.org/2000/svg" xmlns:xlink="http://www.w3.org/1999/xlink" x="0px" y="0px"
	 viewBox="0 0 97 97" style="enable-background:new 0 0 97 97;" xml:space="preserve">
<style type="text/css">
	.st0{fill:#FFFFFF;stroke:#000000;stroke-miterlimit:10;}
	.st1{fill:#F05029;}
	.st2{fill:#F9A039;}
	.st3{fill:#FEDE57;}
	.st4{fill:#FAF8CF;}
	.st5{fill:#F05028;}
</style>
<circle class="st0" cx="48.5" cy="48.5" r="48"/>
<path class="st1" d="M33.9,50.4c0,0-1.2,0.8,0-4.2s-3,5.2-4.1,7.9c-1.2,2.7,0.2,18.8,14.3,22c14.1,3.2,20.8-10.2,20.8-10.2
	s3.9-6.8,2-14.3c-2-7.4-6.5-15.1-6.5-15.1L59.7,44c0,0-2.2-0.8-3-4.8c-0.9-4-0.1-10.4-2.3-13.3c-2.2-2.9-6.5-5.6-6.5-5.6
	s2.9,12.1,0.9,14.8c-2.4,3.2-5.4,2.1-6.5-1.1c0,0-5.9,8.6-2.7,12.2C42.5,49.9,33.9,50.4,33.9,50.4z"/>
<path class="st2" d="M47.7,40.2c0,0,18.2,14.6,8.7,33.1c0,0-1.2,2.8-6.9,3.2c-5.7,0.4-10.7-2.9-12.9-6C34,67,34.2,55.6,37,52.5
	c0,0,4.6,5.4,5.2,5.9C44.8,60.6,52.2,44.7,47.7,40.2z"/>
<path class="st3" d="M49.5,57.3c0,0-1.5,10.9-4.4,11.2c0,0-1.3,0.7-1.3-1.7c0,0-3,3.2-0.5,7.5s10.6,1,10.6,1S58.2,71,53.2,64
	l-1.5,3.2L49.5,57.3z"/>
<path class="st4" d="M48.7,76.6c0.9,0,4.7-0.7,4.4-6.8c0,0-1.4,2.3-2,2.1s-1.7-5.8-1.7-5.8s-0.4,5.8-2.1,6.2S44.8,72,44.8,72
	s-0.1,4.2,1.9,4.6C47.5,76.7,48.3,76.6,48.7,76.6z"/>
<path class="st5" d="M35.8,37.8c0,0-1.4,1-1.4,2.1c0.1,1.1,1.1,1.9,1.1,1.9s0.8-1.2,0.7-2C36.1,39,35.8,37.8,35.8,37.8z"/>
<path class="st5" d="M43.2,23.3c0,0-1.4,1.7-1.2,2.5c0.2,0.8,0.3,1.4,1,2.4C43.6,29.3,43.2,23.3,43.2,23.3z"/>
<path class="st5" d="M59.4,30.1c0,0-1,1.1-1,1.8c0,0.7,1,1.7,1,1.7s0.8-1.3,0.6-1.8S59.4,30.1,59.4,30.1z"/>
</svg>
